{
    "asset" : {
        "generator" : "Khronos glTF Blender I/O v1.7.33",
        "version" : "2.0"
    },
    "scene" : 0,
    "scenes" : [
        {
            "extras" : {
                "b_export" : 1,
                "export_path" : "C:\\Users\\flori\\3D Objects\\Mic\\VR_World\\Aframe_basic_room",
                "s_project_name" : "aframe-basic_room",
                "b_settings" : 0,
                "s_output" : "exporting..."
            },
            "name" : "Scene",
            "nodes" : [
                0
            ]
        }
    ],
    "nodes" : [
        {
            "mesh" : 0,
            "name" : "LightBulb"
        }
    ],
    "materials" : [
        {
            "doubleSided" : true,
            "name" : "Bulb_material",
            "pbrMetallicRoughness" : {
                "baseColorFactor" : [
                    0.8000000715255737,
                    0.44489914178848267,
                    0.11894872784614563,
                    1
                ],
                "metallicFactor" : 0,
                "roughnessFactor" : 0
            }
        },
        {
            "doubleSided" : true,
            "name" : "Bulb_plug_material",
            "pbrMetallicRoughness" : {
                "baseColorFactor" : [
                    0.2734116017818451,
                    0.2734116017818451,
                    0.2734116017818451,
                    1
                ],
                "metallicFactor" : 0,
                "roughnessFactor" : 0.2393939346075058
            }
        }
    ],
    "meshes" : [
        {
            "name" : "Cylinder",
            "primitives" : [
                {
                    "attributes" : {
                        "POSITION" : 0,
                        "NORMAL" : 1,
                        "TEXCOORD_0" : 2
                    },
                    "indices" : 3,
                    "material" : 0
                },
                {
                    "attributes" : {
                        "POSITION" : 4,
                        "NORMAL" : 5,
                        "TEXCOORD_0" : 6
                    },
                    "indices" : 7,
                    "material" : 1
                }
            ]
        }
    ],
    "accessors" : [
        {
            "bufferView" : 0,
            "componentType" : 5126,
            "count" : 395,
            "max" : [
                0.21120165288448334,
                0.0879916176199913,
                0.21120169758796692
            ],
            "min" : [
                -0.2112019956111908,
                -0.6685894131660461,
                -0.21120195090770721
            ],
            "type" : "VEC3"
        },
        {
            "bufferView" : 1,
            "componentType" : 5126,
            "count" : 395,
            "type" : "VEC3"
        },
        {
            "bufferView" : 2,
            "componentType" : 5126,
            "count" : 395,
            "type" : "VEC2"
        },
        {
            "bufferView" : 3,
            "componentType" : 5123,
            "count" : 2010,
            "type" : "SCALAR"
        },
        {
            "bufferView" : 4,
            "componentType" : 5126,
            "count" : 2039,
            "max" : [
                0.08708507567644119,
                0.2713471055030823,
                0.0870850533246994
            ],
            "min" : [
                -0.08708498626947403,
                0.08799154311418533,
                -0.08708500117063522
            ],
            "type" : "VEC3"
        },
        {
            "bufferView" : 5,
            "componentType" : 5126,
            "count" : 2039,
            "type" : "VEC3"
        },
        {
            "bufferView" : 6,
            "componentType" : 5126,
            "count" : 2039,
            "type" : "VEC2"
        },
        {
            "bufferView" : 7,
            "componentType" : 5123,
            "count" : 5082,
            "type" : "SCALAR"
        }
    ],
    "bufferViews" : [
        {
            "buffer" : 0,
            "byteLength" : 4740,
            "byteOffset" : 0
        },
        {
            "buffer" : 0,
            "byteLength" : 4740,
            "byteOffset" : 4740
        },
        {
            "buffer" : 0,
            "byteLength" : 3160,
            "byteOffset" : 9480
        },
        {
            "buffer" : 0,
            "byteLength" : 4020,
            "byteOffset" : 12640
        },
        {
            "buffer" : 0,
            "byteLength" : 24468,
            "byteOffset" : 16660
        },
        {
            "buffer" : 0,
            "byteLength" : 24468,
            "byteOffset" : 41128
        },
        {
            "buffer" : 0,
            "byteLength" : 16312,
            "byteOffset" : 65596
        },
        {
            "buffer" : 0,
            "byteLength" : 10164,
            "byteOffset" : 81908
        }
    ],
    "buffers" : [
        {
            "byteLength" : 92072,
            "uri" : "data:application/octet-stream;base64,"
        }
    ]
}
